<svg xmlns="http://www.w3.org/2000/svg" version="1.1" xmlns:xlink="http://www.w3.org/1999/xlink" xmlns:svgjs="http://svgjs.dev/svgjs" width="1920" height="1280" preserveAspectRatio="none" viewBox="0 0 1920 1280"><g mask="url(&quot;#SvgjsMask1025&quot;)" fill="none"><rect width="1920" height="1280" x="0" y="0" fill="rgba(218, 221, 218, 1)"></rect><path d="M0,765.403C140.669,744.241,197.863,570.931,315.766,491.342C429.717,414.421,615.848,432.336,676.317,308.864C736.547,185.879,633.861,46.251,598.539,-86.057C567.682,-201.64,540.038,-313.138,482.292,-417.909C411.336,-546.648,358.641,-704.482,224.523,-764.655C87.832,-825.982,-70.893,-773.213,-214.503,-730.531C-357.726,-687.964,-507.054,-636.871,-599.741,-519.679C-690.931,-404.38,-703.543,-249.074,-711.385,-102.282C-718.678,34.241,-701.292,169.977,-643.196,293.738C-585.514,416.618,-492.823,516.241,-383.357,596.514C-268.425,680.796,-140.937,786.605,0,765.403" fill="#acb3ac"></path><path d="M1920 1860.913C2066.165 1889.642 2218.05 2018.502 2349.136 1947.749 2477.869 1878.266 2463.37 1687.065 2502.994 1546.245 2536.509 1427.133 2567.181 1311.213 2563.041 1187.545 2558.486 1051.487 2567.484 899.082 2477.898 796.579 2388.365 694.137 2234.1530000000002 692.528 2102.03 660.063 1975.974 629.089 1849.006 577.599 1723.635 611.242 1597.084 645.201 1497.012 740.366 1416.77 843.9490000000001 1339.491 943.707 1284.6779999999999 1061.609 1277.172 1187.575 1269.99 1308.107 1321.315 1420.782 1375.983 1528.444 1428.722 1632.307 1487.724 1737.23 1587.118 1797.9740000000002 1685.467 1858.079 1806.903 1838.684 1920 1860.913" fill="#ffffff"></path></g><defs><mask id="SvgjsMask1025"><rect width="1920" height="1280" fill="#ffffff"></rect></mask></defs></svg>